<svg xmlns="http://www.w3.org/2000/svg" viewBox="0 0 359.17 51.86"><defs><style>.cls-1{fill:#e6363f;}.cls-2{fill:#eeb818;}.cls-3{fill:#7fcac7;}.cls-4{fill:#33b59b;}.cls-5{fill:#36464e;}</style></defs><title>アセット 2</title><g id="レイヤー_2" data-name="レイヤー 2"><g id="レイヤー_1-2" data-name="レイヤー 1"><polygon class="cls-1" points="34.96 1.1 34.96 8.34 30.05 10.04 30.05 2.81 34.96 1.1"/><polygon class="cls-2" points="30.05 14.55 34.96 12.72 34.96 51.21 30.05 51.21 30.05 14.55"/><polygon class="cls-3" points="43.14 2.29 43.14 51.21 38.24 51.21 38.24 0 43.14 2.29"/><polygon class="cls-1" points="55.54 29.41 55.54 51.21 50.63 51.21 50.63 27.29 55.54 29.41"/><polygon class="cls-4" points="71.91 36.48 71.91 51.21 67 51.21 67 34.34 71.91 36.48"/><polygon class="cls-3" points="63.73 32.94 63.73 43.91 58.82 41.77 58.82 30.82 63.73 32.94"/><polygon class="cls-3" points="21.27 22.67 21.27 51.2 16.37 51.2 16.37 24.7 21.27 22.67"/><polygon class="cls-1" points="13.09 26.05 13.09 33.65 8.18 33.65 8.18 28.09 13.09 26.05"/><polygon class="cls-4" points="4.91 38.94 4.91 51.21 0 51.21 0 40.94 4.91 38.94"/><rect class="cls-2" x="8.19" y="42.81" width="4.64" height="8.4"/><path class="cls-5" d="M101.42,4.2a20.83,20.83,0,0,0-.25-3.75h2.88a21.61,21.61,0,0,0-.25,3.68V7.3h10.56a18.86,18.86,0,0,0,2.74-.15,17.75,17.75,0,0,0-.18,2.85v9.84a22,22,0,0,0,.22,3.21h-2.6V20.6H103.8V29a20.88,20.88,0,0,0,.25,4.11h-2.88a24.92,24.92,0,0,0,.25-4.11V20.6H91.25v2.45H88.66a23.35,23.35,0,0,0,.22-3.21V10a24.57,24.57,0,0,0-.18-2.85,19.26,19.26,0,0,0,2.7.15h10ZM91.25,9.46v9h10.17v-9Zm23.29,9v-9H103.8v9Z"/><path class="cls-5" d="M135.7,10.07a36.73,36.73,0,0,1,6,4.58l-1.37,1.91a29.19,29.19,0,0,0-6-4.86Zm6,11.36a53,53,0,0,1-4.15,9.91c-.43.83-.47.94-.68,1.37L134.73,31a8.92,8.92,0,0,0,1.59-2.24,43.86,43.86,0,0,0,3.49-8.58Zm-4-20.19a36.51,36.51,0,0,1,5.48,4.83L141.61,7.8a31.3,31.3,0,0,0-5.51-5.08Zm9.45,7.39c-1.09,0-2.13,0-3,.11a13.89,13.89,0,0,0,.11-2.45V3.48a16.25,16.25,0,0,0-.15-2.38,20.58,20.58,0,0,0,3,.14H163a20.58,20.58,0,0,0,3.06-.14A14.85,14.85,0,0,0,166,3.44V6.36a14.54,14.54,0,0,0,.14,2.38c-.83-.07-1.73-.11-2.85-.11h-7.49v2.45h5.84a20,20,0,0,0,3.46-.18v2.24a20.25,20.25,0,0,0-3.39-.18h-5.91v2.7h7.71a25.59,25.59,0,0,0,3.68-.21v2.3a25.45,25.45,0,0,0-3.72-.21h-1.73a26.63,26.63,0,0,1-1.73,3.6h3.5a24.61,24.61,0,0,0,3.64-.21v2.3a25,25,0,0,0-3.64-.21h-7.71v3.06h6.59a24.24,24.24,0,0,0,3.72-.22v2.35a25.61,25.61,0,0,0-3.72-.22h-6.59v1.62a32.46,32.46,0,0,0,.18,3.64h-2.49a35.72,35.72,0,0,0,.18-3.67V28h-5.55a26.59,26.59,0,0,0-3.86.22V25.9a23.16,23.16,0,0,0,3.71.18h5.73V23h-6.81a21.51,21.51,0,0,0-3.6.18V21a20.94,20.94,0,0,0,3.6.18h3.07a27.5,27.5,0,0,0-1.66-3.6h-1.66a21.55,21.55,0,0,0-3.64.18V15.48a21.32,21.32,0,0,0,3.57.18h7.13V13h-5.19a21.6,21.6,0,0,0-3.49.18V10.9a19.85,19.85,0,0,0,3.46.18h5.22V8.63Zm3.64-5.58h-4.44V6.87h4.44Zm-.33,14.49a28.64,28.64,0,0,1,1.66,3.6h5.62a20.19,20.19,0,0,0,1.7-3.6Zm6.74-14.49h-4.43V6.87h4.43Zm6.64,3.82V3.05h-4.65V6.87Z"/><path class="cls-5" d="M189.74,28.93c0,1.73.07,3,.18,4.25h-2.74a36.63,36.63,0,0,0,.22-4.32v-12c0-1.7,0-2.63.1-4.36a29,29,0,0,1-3.75,5.55,5.13,5.13,0,0,0-1.58-2,34.65,34.65,0,0,0,6.45-10,27.72,27.72,0,0,0,1.88-6l2.59.8C192.62,2,192.62,2,191.83,4.2c-.4,1.12-1.15,3-2.09,5.05Zm25.41.9a27.88,27.88,0,0,0-3.85-.22H196.05a30.62,30.62,0,0,0-3.93.22V27.09a29.71,29.71,0,0,0,3.86.22H211.3a30.34,30.34,0,0,0,3.85-.22ZM194,5.64a26,26,0,0,0,3.75.22h11.71a27,27,0,0,0,3.75-.22v2.7a28.85,28.85,0,0,0-3.75-.21H197.71a28.42,28.42,0,0,0-3.75.21Z"/><path class="cls-5" d="M234.33,4.13a15.48,15.48,0,0,0-3.1.21V1.89a18.71,18.71,0,0,0,3.24.22h5.88a14,14,0,0,0,3-.22V4.27a23.31,23.31,0,0,0-2.92-.14h-2.24a35.07,35.07,0,0,1-2.48,9.15h4.5a15.27,15.27,0,0,0,2.24-.11,27.27,27.27,0,0,0-.11,2.89V27.2a25.35,25.35,0,0,0,.14,3h-2.27V28.42h-4.47v3.82h-2.38a21,21,0,0,0,.22-3.49v-8c0-1.29,0-2.41.11-4a16.7,16.7,0,0,1-2.71,4.4,6.06,6.06,0,0,0-1.29-2.17,24.66,24.66,0,0,0,5-9.15,25.39,25.39,0,0,0,1.23-5.66Zm1.44,22.35h4.47V15.19h-4.47ZM248.28,4.13a24.3,24.3,0,0,0-3.5.21V1.86a22.79,22.79,0,0,0,3.65.21h11.39a24.75,24.75,0,0,0,3.6-.21V4.34a19.06,19.06,0,0,0-3.5-.21h-.86v10h1.15a19.3,19.3,0,0,0,3.61-.21v2.56a22.67,22.67,0,0,0-3.61-.22h-1.15V29.18a27.5,27.5,0,0,0,.25,3.86h-2.77a27.11,27.11,0,0,0,.25-3.86V16.24h-6c-.36,8-1.91,12.4-6,17.16a6.58,6.58,0,0,0-2.09-1.62c3.78-3.61,5.48-8.12,5.8-15.54h-1a19.07,19.07,0,0,0-3.56.22V13.93a22.58,22.58,0,0,0,3.56.18h1.09v-10Zm2.63,8.76v1.22h5.88v-10h-5.88Z"/><path class="cls-5" d="M298.42,18.51a33,33,0,0,0,4-.18c-.07.79-.11,1.55-.14,3.17l-.15,7.32c0,1.08.4,1.23,3.21,1.23,2.53,0,3.25-.18,3.5-.83a21.17,21.17,0,0,0,.58-5.41,9,9,0,0,0,2.34.94c-.58,7.21-.79,7.42-6.6,7.42-4.4,0-5.33-.47-5.33-2.88v-.18l.14-8.47h-6.7a13.8,13.8,0,0,1-2.82,5.94,15.85,15.85,0,0,1-3.85,3.47,24.38,24.38,0,0,1-6,2.95A5.54,5.54,0,0,0,279.07,31,22.64,22.64,0,0,0,286,27.7a11.78,11.78,0,0,0,5-7.06h-5.7a26.48,26.48,0,0,0-3.89.21V18.29a23.52,23.52,0,0,0,3.82.22h6.2a24.41,24.41,0,0,0,.25-3,11.74,11.74,0,0,0-.14-1.94l2.74,0a11,11,0,0,0-.29,2.27c-.07.87-.14,1.77-.29,2.67ZM293.63,3.26a11.1,11.1,0,0,0-.25-2.59h2.81a10.5,10.5,0,0,0-.25,2.59V4.38h10.7a31.14,31.14,0,0,0,3.64-.18,17.37,17.37,0,0,0-.14,2.49V8.52a18,18,0,0,0,.14,2.53h-2.37V6.43h-9v5.23c0,.43.07.61.25.72a7,7,0,0,0,2.31.25,6.74,6.74,0,0,0,2.92-.39c.4-.29.58-1.26.61-2.92a7.68,7.68,0,0,0,2.16.68c-.18,2.27-.46,3.28-1.08,3.82s-2.09.8-4.65.8c-3.78,0-4.68-.4-4.68-2V6.43h-4.44a9.87,9.87,0,0,1-1.26,4,10.12,10.12,0,0,1-5.7,4.57,32.37,32.37,0,0,1-3.35,1,9.45,9.45,0,0,0-1.37-2c3.86-.72,5.66-1.45,7.21-2.89a6.8,6.8,0,0,0,2.2-4.76h-7.68V11H280a17,17,0,0,0,.15-2.52V6.69A15.87,15.87,0,0,0,280,4.2a31.36,31.36,0,0,0,3.64.18h10Z"/><path class="cls-5" d="M351.7,22.55a26.49,26.49,0,0,0,3.82-.18v2.38a25.65,25.65,0,0,0-3.82-.18h-7.64v5.08h10.6a27.55,27.55,0,0,0,4.51-.25v2.52a39.79,39.79,0,0,0-4.65-.22H332a40,40,0,0,0-4.65.22V29.4a28,28,0,0,0,4.54.25h9.88V24.57h-6.92a25.77,25.77,0,0,0-3.86.18V22.37a26.25,26.25,0,0,0,3.86.18h6.92V22a17.25,17.25,0,0,0-.22-2.85h2.71a16.67,16.67,0,0,0-.22,2.85v.54Zm-10-19.76a14.48,14.48,0,0,0-.21-2.45h2.77A13.32,13.32,0,0,0,344,2.79v.94h9.4c2.46,0,3.57,0,4.8-.14a15.86,15.86,0,0,0-.15,2.56V8a15.41,15.41,0,0,0,.15,2.45h-2.38V5.75H330.62V10.4h-2.38l0-.43a17.41,17.41,0,0,0,.11-2.06V6a19.36,19.36,0,0,0-.14-2.41c1.11.1,2.23.14,4.47.14h9Zm-5.33,8.47a29.87,29.87,0,0,0-4.22.18V9.14a28.33,28.33,0,0,0,4.11.18h14a29.26,29.26,0,0,0,4.14-.18v2.3a29.39,29.39,0,0,0-4.11-.18H341a34.74,34.74,0,0,1-2.92,5c4-.1,7-.28,12-.64a35.35,35.35,0,0,0-3.32-2.6l1.73-1.12a62.35,62.35,0,0,1,7.64,6.46l-1.73,1.47a29.87,29.87,0,0,0-2.49-2.56c-6.41.54-13.8,1-20.51,1.23a10.09,10.09,0,0,0-1.37.14l-.36-2.3c.87.07,1.3.11,2.24.11,1.15,0,2,0,3.75-.08a33.66,33.66,0,0,0,2.95-5.12Z"/><path class="cls-5" d="M106.44,48.46a5.65,5.65,0,0,1-.12,1.13,3.08,3.08,0,0,1-.43,1.1,2.48,2.48,0,0,1-.89.84,3,3,0,0,1-1.49.33,2.74,2.74,0,0,1-2.86-2.15l1.59-.45a1.46,1.46,0,0,0,.46.76,1.16,1.16,0,0,0,.78.29,1.22,1.22,0,0,0,.61-.14.89.89,0,0,0,.38-.39,2,2,0,0,0,.18-.61,4.51,4.51,0,0,0,.06-.76V41.87h1.73Z"/><path class="cls-5" d="M110.52,41.87h1.73v9.74h-1.73Z"/><path class="cls-5" d="M116.41,41.87h2.29l4.53,7.29h0V41.87H125v9.74h-2.2l-4.62-7.52h0v7.52h-1.73Z"/><path class="cls-5" d="M134.6,41.87h2.3l4.53,7.29h0V41.87h1.73v9.74H141l-4.63-7.52h0v7.52H134.6Z"/><path class="cls-5" d="M150.4,41.87h1.5l4.2,9.74h-2l-.91-2.23H149l-.89,2.23h-1.94Zm2.2,6-1.5-4-1.52,4Z"/><path class="cls-5" d="M159.07,41.87h1.74v4.21h0l4.07-4.21h2.34l-4.55,4.5,4.86,5.24h-2.44l-4.28-4.88h0v4.88h-1.74Z"/><path class="cls-5" d="M173.62,41.87h1.5l4.2,9.74h-2l-.91-2.23H172.2l-.88,2.23h-1.94Zm2.2,6-1.5-4-1.52,4Z"/><path class="cls-5" d="M181.7,50.05l5.3-6.67h-5.22V41.87h7.29v1.57l-5.33,6.63h5.41v1.54H181.7Z"/><path class="cls-5" d="M195.77,41.87h1.5l4.2,9.74h-2l-.9-2.23h-4.23l-.88,2.23h-1.94Zm2.2,6-1.5-4-1.53,4Z"/><path class="cls-5" d="M203.45,41.87h1.9L207.23,49h0l2.15-7.16h1.79L213.3,49h0l1.93-7.16h1.84l-2.85,9.74h-1.68l-2.28-7.3h0L208,51.61H206.3Z"/><path class="cls-5" d="M223.32,41.87h1.5l4.2,9.74h-2l-.91-2.23h-4.22L221,51.61h-1.94Zm2.21,6-1.5-4-1.53,4Z"/><path class="cls-5" d="M237.44,41.87h1.74v8.2h4.14v1.54h-5.88Z"/><path class="cls-5" d="M249.54,41.87H251l4.2,9.74h-2l-.91-2.23h-4.22l-.89,2.23H245.3Zm2.21,6-1.51-4-1.52,4Z"/><path class="cls-5" d="M258.21,41.87H262a4.45,4.45,0,0,1,1.09.13,2.8,2.8,0,0,1,1,.43,2.27,2.27,0,0,1,.68.76,2.33,2.33,0,0,1,.26,1.13,2,2,0,0,1-.47,1.36,2.54,2.54,0,0,1-1.22.77v0a2.5,2.5,0,0,1,1.51.72,2.1,2.1,0,0,1,.59,1.58,2.63,2.63,0,0,1-.31,1.34,2.72,2.72,0,0,1-.84.88,3.65,3.65,0,0,1-1.18.47,6.22,6.22,0,0,1-1.36.14h-3.51Zm1.74,4h1.54a2.14,2.14,0,0,0,1.32-.34,1.17,1.17,0,0,0,.46-1,1,1,0,0,0-.47-.93,2.9,2.9,0,0,0-1.46-.28H260Zm0,4.33h1.55a6.39,6.39,0,0,0,.72,0,2.66,2.66,0,0,0,.71-.2,1.41,1.41,0,0,0,.53-.44,1.23,1.23,0,0,0,.22-.77,1.15,1.15,0,0,0-.52-1.08,3.29,3.29,0,0,0-1.59-.3H260Z"/><path class="cls-5" d="M268.66,46.71a5.47,5.47,0,0,1,.39-2.11,4.64,4.64,0,0,1,1.09-1.6,4.79,4.79,0,0,1,1.65-1A6.28,6.28,0,0,1,276,42a4.87,4.87,0,0,1,1.67,1,4.51,4.51,0,0,1,1.09,1.6,5.47,5.47,0,0,1,.39,2.11,5.4,5.4,0,0,1-.39,2.09,4.68,4.68,0,0,1-1.09,1.62A4.81,4.81,0,0,1,276,51.48a6,6,0,0,1-4.19,0,4.73,4.73,0,0,1-1.65-1.06,4.82,4.82,0,0,1-1.09-1.62A5.4,5.4,0,0,1,268.66,46.71Zm1.89,0a4.1,4.1,0,0,0,.24,1.44,3.29,3.29,0,0,0,.69,1.14,3.1,3.1,0,0,0,1.06.75,3.29,3.29,0,0,0,1.35.27,3.34,3.34,0,0,0,1.36-.27,3.14,3.14,0,0,0,1.07-.75,3.29,3.29,0,0,0,.69-1.14,4.1,4.1,0,0,0,.24-1.44,4,4,0,0,0-.24-1.4,3.48,3.48,0,0,0-.68-1.13,3.37,3.37,0,0,0-1.06-.76,3.43,3.43,0,0,0-1.38-.27,3.38,3.38,0,0,0-1.37.27,3.22,3.22,0,0,0-1,.76,3.31,3.31,0,0,0-.68,1.13A4,4,0,0,0,270.55,46.71Z"/><path class="cls-5" d="M282.82,41.87h3.39a6.45,6.45,0,0,1,1.33.14,3.41,3.41,0,0,1,1.15.48,2.42,2.42,0,0,1,.81.87,2.6,2.6,0,0,1,.3,1.3,2.48,2.48,0,0,1-.6,1.73,2.94,2.94,0,0,1-1.63.9l2.6,4.32h-2.09l-2.26-4.12h-1.26v4.12h-1.74Zm3.16,4.2a4.71,4.71,0,0,0,.74-.06,2,2,0,0,0,.67-.2,1.47,1.47,0,0,0,.49-.44,1.33,1.33,0,0,0,.19-.72,1.09,1.09,0,0,0-.18-.65,1.3,1.3,0,0,0-.46-.41,2,2,0,0,0-.62-.21,5.45,5.45,0,0,0-.68-.05h-1.57v2.74Z"/><path class="cls-5" d="M296.55,41.87h1.5l4.19,9.74h-2l-.91-2.23h-4.22l-.88,2.23h-1.94Zm2.2,6-1.5-4-1.53,4Z"/><path class="cls-5" d="M307.19,43.38h-3V41.87h7.71v1.51h-3v8.23h-1.73Z"/><path class="cls-5" d="M314.58,46.71A5.47,5.47,0,0,1,315,44.6a4.51,4.51,0,0,1,1.09-1.6,4.79,4.79,0,0,1,1.65-1,5.86,5.86,0,0,1,2.08-.36,6,6,0,0,1,2.11.36,4.83,4.83,0,0,1,1.66,1,4.53,4.53,0,0,1,1.1,1.6,5.47,5.47,0,0,1,.39,2.11,5.4,5.4,0,0,1-.39,2.09,4.7,4.7,0,0,1-1.1,1.62,4.77,4.77,0,0,1-1.66,1.06,5.58,5.58,0,0,1-2.11.38,5.46,5.46,0,0,1-2.08-.38,4.73,4.73,0,0,1-1.65-1.06A4.68,4.68,0,0,1,315,48.8,5.4,5.4,0,0,1,314.58,46.71Zm1.88,0a4.1,4.1,0,0,0,.24,1.44,3.29,3.29,0,0,0,.69,1.14,3.19,3.19,0,0,0,1.06.75,3.34,3.34,0,0,0,1.36.27,3.37,3.37,0,0,0,1.36-.27,3.23,3.23,0,0,0,1.07-.75,3.42,3.42,0,0,0,.68-1.14,4.1,4.1,0,0,0,.25-1.44,4,4,0,0,0-.25-1.4,3.31,3.31,0,0,0-.68-1.13,3.16,3.16,0,0,0-1.06-.76,3.38,3.38,0,0,0-1.37-.27,3.18,3.18,0,0,0-2.43,1,3.48,3.48,0,0,0-.68,1.13A4,4,0,0,0,316.46,46.71Z"/><path class="cls-5" d="M328.74,41.87h3.39a6.53,6.53,0,0,1,1.33.14,3.49,3.49,0,0,1,1.15.48,2.51,2.51,0,0,1,.81.87,2.6,2.6,0,0,1,.3,1.3,2.48,2.48,0,0,1-.6,1.73,2.94,2.94,0,0,1-1.63.9l2.6,4.32H334l-2.26-4.12h-1.27v4.12h-1.73Zm3.15,4.2a4.74,4.74,0,0,0,.75-.06,2,2,0,0,0,.66-.2,1.38,1.38,0,0,0,.49-.44,1.25,1.25,0,0,0,.19-.72,1.16,1.16,0,0,0-.17-.65,1.39,1.39,0,0,0-.46-.41,2,2,0,0,0-.63-.21,5.31,5.31,0,0,0-.68-.05h-1.57v2.74Z"/><path class="cls-5" d="M341.76,47.39l-3.66-5.52h2.12l2.45,4.1,2.48-4.1h2l-3.67,5.52v4.22h-1.73Z"/></g></g></svg>