<svg xmlns="http://www.w3.org/2000/svg" viewBox="0 0 74.43 68.89"><defs><style>.cls-1{fill:#231815;}.cls-2{fill:#e6363f;}.cls-3{fill:#eeb818;}.cls-4{fill:#7fcac7;}.cls-5{fill:#33b59b;}</style></defs><title>アセット 3</title><g id="レイヤー_2" data-name="レイヤー 2"><g id="レイヤー_1-2" data-name="レイヤー 1"><path class="cls-1" d="M3.54,58.85a4.77,4.77,0,0,1-.06.76,2,2,0,0,1-.26.65,1.4,1.4,0,0,1-.55.46,2.24,2.24,0,0,1-.93.17A2,2,0,0,1,.6,60.57a1.51,1.51,0,0,1-.6-1l1.14-.28a.56.56,0,0,0,.19.35.54.54,0,0,0,.37.14.49.49,0,0,0,.34-.1.71.71,0,0,0,.18-.27,1.28,1.28,0,0,0,.06-.35c0-.12,0-.24,0-.35V55.08H3.54Z"/><path class="cls-1" d="M5.5,55.08H6.75v5.66H5.5Z"/><path class="cls-1" d="M8.79,55.08h1.7L12.9,59h0V55.08h1.25v5.66H12.53l-2.47-4h0v4H8.79Z"/><path class="cls-1" d="M19.49,55.08h1.69L23.59,59h0V55.08h1.25v5.66H23.22l-2.47-4h0v4H19.49Z"/><path class="cls-1" d="M28.78,55.08h1l2.46,5.66H30.86l-.48-1.2h-2.2l-.48,1.2H26.33Zm.48,1.65-.69,1.76H30Z"/><path class="cls-1" d="M33.79,55.08H35v2.35l2.2-2.35h1.63l-2.52,2.63,2.74,3H37.34L35,58.06v2.68H33.79Z"/><path class="cls-1" d="M42.29,55.08h1l2.46,5.66h-1.4l-.49-1.2h-2.2l-.47,1.2H39.84Zm.48,1.65-.69,1.76h1.38Z"/><path class="cls-1" d="M47,59.59l2.87-3.41H47.06v-1.1h4.28v1.1l-2.81,3.41h2.91v1.15H47Z"/><path class="cls-1" d="M55.06,55.08h1l2.46,5.66H57.15l-.49-1.2h-2.2L54,60.74H52.62Zm.48,1.65-.68,1.76h1.38Z"/><path class="cls-1" d="M59.44,55.08H60.8l.9,3.63h0l1.18-3.63h1.16l1.18,3.73h0l.95-3.73h1.26l-1.65,5.66H64.7l-1.24-3.92h0l-1.25,3.92H61.12Z"/><path class="cls-1" d="M70.8,55.08h1l2.47,5.66H72.89l-.49-1.2H70.2l-.47,1.2H68.35Zm.48,1.65-.69,1.76H72Z"/><path class="cls-1" d="M.66,63.08H1.91v4.51H4.22v1.15H.66Z"/><path class="cls-1" d="M8.94,63.08h1l2.46,5.66H11l-.48-1.2H8.34l-.48,1.2H6.49Zm.48,1.65-.69,1.76h1.38Z"/><path class="cls-1" d="M15.16,63.08h2.11a6.13,6.13,0,0,1,.74.05,2.29,2.29,0,0,1,.67.21,1.27,1.27,0,0,1,.48.44,1.33,1.33,0,0,1,.18.74,1.24,1.24,0,0,1-.26.8,1.5,1.5,0,0,1-.71.45h0a1.78,1.78,0,0,1,.51.16,1.45,1.45,0,0,1,.39.3,1.27,1.27,0,0,1,.25.42,1.54,1.54,0,0,1-.1,1.26,1.53,1.53,0,0,1-.5.48,2.14,2.14,0,0,1-.68.26,3.33,3.33,0,0,1-.76.08H15.16Zm1.25,2.26h.9a1.43,1.43,0,0,0,.29,0,.77.77,0,0,0,.25-.1.54.54,0,0,0,.25-.48.51.51,0,0,0-.28-.47.79.79,0,0,0-.27-.1l-.29,0h-.85Zm0,2.35h1.12l.29,0a.66.66,0,0,0,.27-.12.61.61,0,0,0,.19-.2.63.63,0,0,0,.08-.32.47.47,0,0,0-.1-.32.79.79,0,0,0-.25-.19,1.59,1.59,0,0,0-.33-.09l-.33,0h-.94Z"/><path class="cls-1" d="M22.2,65.91a3.25,3.25,0,0,1,.23-1.23,2.68,2.68,0,0,1,.63-.94,2.93,2.93,0,0,1,1-.6,3.85,3.85,0,0,1,2.45,0,2.83,2.83,0,0,1,1,.6,2.68,2.68,0,0,1,.63.94,3.06,3.06,0,0,1,.23,1.23,3,3,0,0,1-.23,1.23,2.59,2.59,0,0,1-.63.94,2.83,2.83,0,0,1-1,.6,3.68,3.68,0,0,1-2.45,0,2.93,2.93,0,0,1-1-.6,2.59,2.59,0,0,1-.63-.94A3.17,3.17,0,0,1,22.2,65.91Zm1.3,0a2.11,2.11,0,0,0,.12.73,1.5,1.5,0,0,0,.36.58,1.64,1.64,0,0,0,.55.38,1.95,1.95,0,0,0,1.45,0,1.68,1.68,0,0,0,.56-.38,1.61,1.61,0,0,0,.35-.58,2.11,2.11,0,0,0,.13-.73,2.2,2.2,0,0,0-.13-.73,1.8,1.8,0,0,0-.35-.58,1.85,1.85,0,0,0-.56-.38,2.09,2.09,0,0,0-1.45,0,1.8,1.8,0,0,0-.55.38,1.66,1.66,0,0,0-.36.58A2.19,2.19,0,0,0,23.5,65.91Z"/><path class="cls-1" d="M31.32,63.08h2.19a4.3,4.3,0,0,1,.82.08,1.82,1.82,0,0,1,.68.29,1.39,1.39,0,0,1,.47.52,1.86,1.86,0,0,1,.17.83,1.71,1.71,0,0,1-.31,1,1.41,1.41,0,0,1-.92.53l1.44,2.39H34.37l-1.19-2.26h-.61v2.26H31.32Zm1.25,2.34h1.09a1.21,1.21,0,0,0,.34-.07.53.53,0,0,0,.25-.19.53.53,0,0,0,.1-.36.57.57,0,0,0-.09-.34.53.53,0,0,0-.22-.2,1.4,1.4,0,0,0-.31-.09,2.06,2.06,0,0,0-.35,0h-.81Z"/><path class="cls-1" d="M40.53,63.08h1L44,68.74h-1.4l-.49-1.2h-2.2l-.47,1.2H38.08ZM41,64.73l-.69,1.76H41.7Z"/><path class="cls-1" d="M47.85,64.18H46.23v-1.1h4.48v1.1H49.1v4.56H47.85Z"/><path class="cls-1" d="M53.2,65.91a3.25,3.25,0,0,1,.23-1.23,2.68,2.68,0,0,1,.63-.94,2.93,2.93,0,0,1,1-.6,3.85,3.85,0,0,1,2.45,0,2.83,2.83,0,0,1,1,.6,2.68,2.68,0,0,1,.63.94,3.06,3.06,0,0,1,.23,1.23,3,3,0,0,1-.23,1.23,2.59,2.59,0,0,1-.63.94,2.83,2.83,0,0,1-1,.6,3.68,3.68,0,0,1-2.45,0,2.93,2.93,0,0,1-1-.6,2.59,2.59,0,0,1-.63-.94A3.17,3.17,0,0,1,53.2,65.91Zm1.3,0a2.11,2.11,0,0,0,.12.73,1.5,1.5,0,0,0,.36.58,1.64,1.64,0,0,0,.55.38,1.95,1.95,0,0,0,1.45,0,1.68,1.68,0,0,0,.56-.38,1.61,1.61,0,0,0,.35-.58,2.11,2.11,0,0,0,.13-.73,2.2,2.2,0,0,0-.13-.73,1.8,1.8,0,0,0-.35-.58,1.85,1.85,0,0,0-.56-.38,2.09,2.09,0,0,0-1.45,0,1.8,1.8,0,0,0-.55.38,1.66,1.66,0,0,0-.36.58A2.19,2.19,0,0,0,54.5,65.91Z"/><path class="cls-1" d="M62.32,63.08h2.19a4.3,4.3,0,0,1,.82.08,1.82,1.82,0,0,1,.68.29,1.39,1.39,0,0,1,.47.52,1.86,1.86,0,0,1,.17.83,1.65,1.65,0,0,1-.32,1,1.36,1.36,0,0,1-.91.53l1.44,2.39H65.37l-1.19-2.26h-.61v2.26H62.32Zm1.25,2.34h1.09a1.21,1.21,0,0,0,.34-.07.58.58,0,0,0,.25-.19.53.53,0,0,0,.1-.36.57.57,0,0,0-.09-.34.6.6,0,0,0-.22-.2,1.4,1.4,0,0,0-.31-.09,2.06,2.06,0,0,0-.35,0h-.81Z"/><path class="cls-1" d="M71.06,66.33l-2.13-3.25h1.55l1.2,2.12L73,63.08h1.48L72.3,66.33v2.41H71.06Z"/><polygon class="cls-2" points="36.25 1.1 36.25 8.34 31.33 10.04 31.33 2.81 36.25 1.1"/><polygon class="cls-3" points="31.33 14.55 36.25 12.72 36.25 51.21 31.33 51.21 31.33 14.55"/><polygon class="cls-4" points="44.43 2.29 44.43 51.21 39.52 51.21 39.52 0 44.43 2.29"/><polygon class="cls-2" points="56.83 29.41 56.83 51.21 51.92 51.21 51.92 27.29 56.83 29.41"/><polygon class="cls-5" points="73.19 36.48 73.19 51.21 68.28 51.21 68.28 34.34 73.19 36.48"/><polygon class="cls-4" points="65.01 32.94 65.01 43.91 60.1 41.77 60.1 30.82 65.01 32.94"/><polygon class="cls-4" points="22.56 22.67 22.56 51.2 17.65 51.2 17.65 24.7 22.56 22.67"/><polygon class="cls-2" points="14.37 26.05 14.37 33.65 9.47 33.65 9.47 28.09 14.37 26.05"/><polygon class="cls-5" points="6.2 38.94 6.2 51.21 1.28 51.21 1.28 40.94 6.2 38.94"/><rect class="cls-3" x="9.47" y="42.81" width="4.64" height="8.4"/></g></g></svg>