<svg xmlns="http://www.w3.org/2000/svg" viewBox="0 0 71.91 51.21"><defs><style>.cls-1{fill:#e6363f;}.cls-2{fill:#eeb818;}.cls-3{fill:#7fcac7;}.cls-4{fill:#33b59b;}</style></defs><title>アセット 4</title><g id="レイヤー_2" data-name="レイヤー 2"><g id="レイヤー_1-2" data-name="レイヤー 1"><polygon class="cls-1" points="34.96 1.1 34.96 8.34 30.05 10.04 30.05 2.81 34.96 1.1"/><polygon class="cls-2" points="30.05 14.55 34.96 12.72 34.96 51.21 30.05 51.21 30.05 14.55"/><polygon class="cls-3" points="43.14 2.29 43.14 51.21 38.24 51.21 38.24 0 43.14 2.29"/><polygon class="cls-1" points="55.54 29.41 55.54 51.21 50.63 51.21 50.63 27.29 55.54 29.41"/><polygon class="cls-4" points="71.91 36.48 71.91 51.21 67 51.21 67 34.34 71.91 36.48"/><polygon class="cls-3" points="63.73 32.94 63.73 43.91 58.82 41.77 58.82 30.82 63.73 32.94"/><polygon class="cls-3" points="21.27 22.67 21.27 51.2 16.37 51.2 16.37 24.7 21.27 22.67"/><polygon class="cls-1" points="13.09 26.05 13.09 33.65 8.18 33.65 8.18 28.09 13.09 26.05"/><polygon class="cls-4" points="4.91 38.94 4.91 51.21 0 51.21 0 40.94 4.91 38.94"/><rect class="cls-2" x="8.19" y="42.81" width="4.64" height="8.4"/></g></g></svg>