<svg xmlns="http://www.w3.org/2000/svg" viewBox="0 0 291.37 52.17"><defs><style>.cls-1{fill:#e6363f;}.cls-2{fill:#eeb818;}.cls-3{fill:#7fcac7;}.cls-4{fill:#33b59b;}.cls-5{fill:#36464e;}</style></defs><title>アセット 1</title><g id="レイヤー_2" data-name="レイヤー 2"><g id="レイヤー_1-2" data-name="レイヤー 1"><polygon class="cls-1" points="35.6 1.13 35.6 8.49 30.6 10.23 30.6 2.86 35.6 1.13"/><polygon class="cls-2" points="30.6 14.83 35.6 12.96 35.6 52.17 30.6 52.17 30.6 14.83"/><polygon class="cls-3" points="43.94 2.34 43.94 52.17 38.94 52.17 38.94 0 43.94 2.34"/><polygon class="cls-1" points="56.59 29.96 56.59 52.17 51.58 52.17 51.58 27.8 56.59 29.96"/><polygon class="cls-4" points="73.26 37.16 73.26 52.17 68.26 52.17 68.26 34.98 73.26 37.16"/><polygon class="cls-3" points="64.92 33.56 64.92 44.74 59.92 42.56 59.92 31.4 64.92 33.56"/><polygon class="cls-3" points="21.67 23.09 21.67 52.17 16.67 52.17 16.67 25.17 21.67 23.09"/><polygon class="cls-1" points="13.34 26.54 13.34 34.28 8.34 34.28 8.34 28.61 13.34 26.54"/><polygon class="cls-4" points="5.01 39.67 5.01 52.17 0 52.17 0 41.71 5.01 39.67"/><rect class="cls-2" x="8.34" y="43.61" width="4.72" height="8.56"/><path class="cls-5" d="M99.44,23a10,10,0,0,1-.17,1.91,4.2,4.2,0,0,1-.65,1.63,3.38,3.38,0,0,1-1.37,1.14,5.33,5.33,0,0,1-2.33.43,4.86,4.86,0,0,1-2.85-.8,3.8,3.8,0,0,1-1.5-2.5l2.86-.7a1.37,1.37,0,0,0,.47.88,1.4,1.4,0,0,0,.94.36,1.21,1.21,0,0,0,.84-.27,1.7,1.7,0,0,0,.44-.67,3.44,3.44,0,0,0,.17-.87c0-.32,0-.61,0-.88V13.59h3.12Z"/><path class="cls-5" d="M105.67,13.59h3.13V27.77h-3.13Z"/><path class="cls-5" d="M115.23,13.59h4.25l6,9.86h0V13.59h3.12V27.77h-4.09l-6.19-10.09h0V27.77h-3.12Z"/><path class="cls-5" d="M144.66,13.59h4.24l6,9.86h0V13.59h3.13V27.77H154l-6.19-10.09h0V27.77h-3.12Z"/><path class="cls-5" d="M169.23,13.59h2.59L178,27.77h-3.53l-1.22-3h-5.51l-1.18,3h-3.44Zm1.21,4.13-1.73,4.4h3.47Z"/><path class="cls-5" d="M183.12,13.59h3.12v5.89l5.51-5.89h4.09l-6.31,6.59,6.85,7.59H192L186.24,21v6.73h-3.12Z"/><path class="cls-5" d="M205.71,13.59h2.59l6.17,14.18h-3.53l-1.22-3h-5.51l-1.18,3h-3.45Zm1.21,4.13-1.73,4.4h3.47Z"/><path class="cls-5" d="M218.73,24.89l7.2-8.54H219V13.59h10.72v2.76l-7.05,8.54H230v2.88H218.73Z"/><path class="cls-5" d="M240.35,13.59h2.58l6.17,14.18h-3.52l-1.22-3h-5.51l-1.19,3h-3.44Zm1.2,4.13-1.72,4.4h3.46Z"/><path class="cls-5" d="M252.63,13.59H256l2.27,9.09h0l3-9.09h2.91l2.94,9.33h0l2.39-9.33h3.16L268.6,27.77h-2.79L262.69,18h0l-3.13,9.81h-2.68Z"/><path class="cls-5" d="M282.4,13.59H285l6.17,14.18h-3.52l-1.23-3h-5.51l-1.18,3h-3.44Zm1.2,4.13-1.72,4.4h3.46Z"/><path class="cls-5" d="M92.23,37.63h3.13v11.3h5.79v2.88H92.23Z"/><path class="cls-5" d="M114.55,37.63h2.58l6.17,14.18h-3.52l-1.23-3h-5.5l-1.19,3h-3.44Zm1.2,4.12L114,46.16h3.46Z"/><path class="cls-5" d="M131.74,37.63H137a12.92,12.92,0,0,1,1.86.13,5.11,5.11,0,0,1,1.67.52,3.22,3.22,0,0,1,1.2,1.09,3.33,3.33,0,0,1,.46,1.86,3,3,0,0,1-.67,2,3.72,3.72,0,0,1-1.77,1.13v0a4.19,4.19,0,0,1,1.27.39,3.29,3.29,0,0,1,1,.74,3,3,0,0,1,.63,1,3.63,3.63,0,0,1,.22,1.28,3.43,3.43,0,0,1-.48,1.88A3.77,3.77,0,0,1,141.15,51a5.34,5.34,0,0,1-1.71.66,9.51,9.51,0,0,1-1.9.2h-5.8Zm3.12,5.67h2.26a3.36,3.36,0,0,0,.71-.08,2.15,2.15,0,0,0,.64-.26,1.36,1.36,0,0,0,.62-1.21,1.39,1.39,0,0,0-.19-.73,1.41,1.41,0,0,0-.49-.45,2.66,2.66,0,0,0-.69-.23,4.74,4.74,0,0,0-.74-.07h-2.12Zm0,5.87h2.8a3.72,3.72,0,0,0,.74-.08,2.21,2.21,0,0,0,.67-.28,1.74,1.74,0,0,0,.49-.52,1.62,1.62,0,0,0,.19-.79,1.3,1.3,0,0,0-.25-.81,1.74,1.74,0,0,0-.63-.47,3.67,3.67,0,0,0-.82-.22,6.23,6.23,0,0,0-.83-.06h-2.36Z"/><path class="cls-5" d="M151,44.72a8.06,8.06,0,0,1,.57-3.09,6.79,6.79,0,0,1,1.59-2.35,7,7,0,0,1,2.42-1.49,8.72,8.72,0,0,1,3.07-.52,8.62,8.62,0,0,1,3.06.52,7,7,0,0,1,2.43,1.49,6.79,6.79,0,0,1,1.59,2.35,8.63,8.63,0,0,1,0,6.17,6.73,6.73,0,0,1-1.59,2.36,7,7,0,0,1-2.43,1.49,8.62,8.62,0,0,1-3.06.52,8.72,8.72,0,0,1-3.07-.52,7,7,0,0,1-2.42-1.49,6.73,6.73,0,0,1-1.59-2.36A8,8,0,0,1,151,44.72Zm3.24,0a5.09,5.09,0,0,0,.31,1.83,4.36,4.36,0,0,0,.89,1.45,4.18,4.18,0,0,0,1.4,1,5,5,0,0,0,3.62,0,4.14,4.14,0,0,0,1.39-1,4.23,4.23,0,0,0,.9-1.45,5.32,5.32,0,0,0,.31-1.83,5.39,5.39,0,0,0-.31-1.82,4.27,4.27,0,0,0-.9-1.46,4.14,4.14,0,0,0-1.39-.95,5,5,0,0,0-3.62,0,4.18,4.18,0,0,0-1.4.95,4.41,4.41,0,0,0-.89,1.46A5.15,5.15,0,0,0,154.21,44.72Z"/><path class="cls-5" d="M175.41,37.63h5.48a9.72,9.72,0,0,1,2.06.21,4.88,4.88,0,0,1,1.7.7,3.54,3.54,0,0,1,1.16,1.32,4.48,4.48,0,0,1,.43,2.08,4.16,4.16,0,0,1-.78,2.55,3.53,3.53,0,0,1-2.28,1.33l3.6,6H183l-3-5.67h-1.54v5.67h-3.12Zm3.12,5.87h1.84l.89,0a2.85,2.85,0,0,0,.86-.18,1.54,1.54,0,0,0,.63-.47,1.5,1.5,0,0,0,.25-.9,1.58,1.58,0,0,0-.22-.87,1.64,1.64,0,0,0-.56-.49,2.61,2.61,0,0,0-.79-.23,6.33,6.33,0,0,0-.86-.06h-2Z"/><path class="cls-5" d="M200.06,37.63h2.59l6.17,14.18h-3.53l-1.22-3h-5.51l-1.18,3h-3.44Zm1.21,4.12-1.73,4.41H203Z"/><path class="cls-5" d="M220,40.39H216V37.63h11.22v2.76h-4V51.81H220Z"/><path class="cls-5" d="M235,44.72a8.06,8.06,0,0,1,.57-3.09,6.79,6.79,0,0,1,1.59-2.35,7.08,7.08,0,0,1,2.43-1.49,8.62,8.62,0,0,1,3.06-.52,8.72,8.72,0,0,1,3.07.52,7,7,0,0,1,2.42,1.49,6.79,6.79,0,0,1,1.59,2.35,8.49,8.49,0,0,1,0,6.17,6.73,6.73,0,0,1-1.59,2.36,7,7,0,0,1-2.42,1.49,8.72,8.72,0,0,1-3.07.52,8.62,8.62,0,0,1-3.06-.52,7.08,7.08,0,0,1-2.43-1.49,6.73,6.73,0,0,1-1.59-2.36A8,8,0,0,1,235,44.72Zm3.25,0a5.09,5.09,0,0,0,.31,1.83,4.06,4.06,0,0,0,.89,1.45,4.24,4.24,0,0,0,1.39,1,5,5,0,0,0,3.63,0,4.05,4.05,0,0,0,2.28-2.4,5.09,5.09,0,0,0,.31-1.83,5.15,5.15,0,0,0-.31-1.82,4,4,0,0,0-2.28-2.41,5,5,0,0,0-3.63,0,4.24,4.24,0,0,0-1.39.95,4.1,4.1,0,0,0-.89,1.46A5.15,5.15,0,0,0,238.25,44.72Z"/><path class="cls-5" d="M259.44,37.63h5.49a9.69,9.69,0,0,1,2.05.21,4.85,4.85,0,0,1,1.71.7,3.63,3.63,0,0,1,1.16,1.32,4.61,4.61,0,0,1,.43,2.08,4.16,4.16,0,0,1-.78,2.55,3.55,3.55,0,0,1-2.29,1.33l3.61,6h-3.75l-3-5.67h-1.54v5.67h-3.13Zm3.13,5.87h1.84l.89,0a2.79,2.79,0,0,0,.85-.18,1.54,1.54,0,0,0,.63-.47,1.44,1.44,0,0,0,.25-.9,1.5,1.5,0,0,0-.22-.87,1.56,1.56,0,0,0-.56-.49,2.63,2.63,0,0,0-.78-.23,6.33,6.33,0,0,0-.86-.06h-2Z"/><path class="cls-5" d="M282.92,45.76l-5.33-8.13h3.89l3,5.31,3.19-5.31h3.7L286,45.76v6.05h-3.12Z"/></g></g></svg>